<?xml version="1.0" encoding="utf-8"?>
<!-- Generator: Adobe Illustrator 23.0.1, SVG Export Plug-In . SVG Version: 6.00 Build 0)  -->
<svg version="1.1" id="Layer_1" focusable="false" xmlns="http://www.w3.org/2000/svg" xmlns:xlink="http://www.w3.org/1999/xlink"
	 x="0px" y="0px" viewBox="0 0 512 402.1" style="enable-background:new 0 0 512 402.1;" xml:space="preserve">
<style type="text/css">
	.st0{fill:#FFFFFF;}
</style>
<g>
	<path class="st0" d="M281.1,287.8H46.3c-2.8,0-5.1-2.3-5.1-5.1V46.3c0-2.8,2.3-5.1,5.1-5.1h346.1c2.8,0,5.1,2.3,5.1,5.1v122h41.1
		V41.1c0-22.7-18.4-41.1-41.1-41.1H41.1C18.4,0,0,18.4,0,41.1v246.7c0,22.7,18.4,41.1,41.1,41.1h240V287.8z"/>
	<path class="st0" d="M356.3,178.2l-75-75c-4-4-10.5-4-14.5,0L164.5,205.6l-33.8-33.8c-4-4-10.5-4-14.5,0l-33.8,33.8v41.1h274.1
		v-68.5H356.3z"/>
	<ellipse class="st0" cx="109.6" cy="109.6" rx="34.3" ry="34.3"/>
</g>
<path class="st0" d="M498.6,288h-60.5v-60.5c0-7.4-6-13.4-13.4-13.4h-13.4c-7.4,0-13.4,6-13.4,13.4V288h-60.5
	c-7.4,0-13.4,6-13.4,13.4v13.4c0,7.4,6,13.4,13.4,13.4h60.5v60.5c0,7.4,6,13.4,13.4,13.4h13.4c7.4,0,13.4-6,13.4-13.4v-60.5h60.5
	c7.4,0,13.4-6,13.4-13.4v-13.4C512,294,506,288,498.6,288z"/>
</svg>
